<?xml version="1.0" encoding="UTF-8"?>
<svg version="1.1" xmlns="http://www.w3.org/2000/svg" width="1200" height="400">
<path d="M0 0 C0.79575439 -0.01853027 1.59150879 -0.03706055 2.41137695 -0.05615234 C9.19413176 0.01571231 14.13501371 2.04830644 19.484375 6.17578125 C24.29696904 11.16706071 27.22443089 16.31037676 30.3125 22.5 C31.00472656 22.05269531 31.69695313 21.60539062 32.41015625 21.14453125 C53.16267364 8.32117071 77.26076537 5.77548061 101.1875 6.125 C103.14623507 6.13877586 105.10497567 6.15178539 107.0637207 6.1640625 C121.38656725 6.29239351 135.63876652 6.96499954 149.91796875 8.0625 C160.44205229 9.23365533 160.44205229 9.23365533 170.3125 6.5 C173.1875 6.19921875 173.1875 6.19921875 176.3125 6.1875 C177.859375 6.16236328 177.859375 6.16236328 179.4375 6.13671875 C182.3125 6.5 182.3125 6.5 184.21582031 7.98095703 C186.58398482 9.69669056 187.85085802 9.95917286 190.734375 10.16796875 C191.61287109 10.23290527 192.49136719 10.2978418 193.39648438 10.36474609 C199.93632401 10.66808427 206.48493983 10.78650709 213.03125 10.84179688 C219.35841275 10.99997594 223.55228793 11.13714805 228.3125 15.5 C230.22553463 18.5774905 230.31503398 20.35809708 230.25 24 C229.12371434 28.2047998 227.65830343 29.77667162 224.3125 32.5 C213.09470714 38.91685855 196.77563019 37.12810165 184.3125 37.5 C181.33901836 43.75147647 179.72969631 50.17283267 178.0625 56.875 C174.95937828 69.0939553 171.63561718 81.23532645 168.19628906 93.36328125 C167.28329598 96.60365008 166.38582222 99.84799223 165.4921875 103.09375 C162.73641124 113.08297508 159.93307946 122.99716299 156.546875 132.79296875 C155.355229 136.37167777 154.2853063 139.96626011 153.23632812 143.58837891 C150.14784769 154.22807112 146.42519709 164.52922966 142.35595703 174.83056641 C141.60982187 176.73937358 140.87801192 178.6538052 140.15576172 180.57177734 C137.24848105 188.27797544 134.0379448 195.78372736 130.5625 203.25 C129.77480225 204.94334473 129.77480225 204.94334473 128.97119141 206.67089844 C108.11237166 251.18241334 108.11237166 251.18241334 88.3125 260.5 C76.56127264 263.46768284 64.63976349 261.65332783 54.3125 255.5 C43.05887056 247.62245939 38.38802292 234.42157686 36 221.3125 C35.29325096 215.74084736 35.04755711 210.17326517 34.9375 204.5625 C34.91131592 203.75723877 34.88513184 202.95197754 34.8581543 202.12231445 C34.84301001 196.75282179 35.79528872 193.78210667 39.3125 189.5 C41.3125 187.5 41.3125 187.5 44.625 187.0625 C48.3125 187.5 48.3125 187.5 51.125 189.5625 C55.53776216 195.48820918 55.81026177 202.67355184 56.6875 209.8125 C57.92488509 222.05708003 57.92488509 222.05708003 64.140625 232.1875 C67.94396224 234.48591962 71.93593462 234.62812749 76.3125 234.5 C78.9661129 233.80273687 80.85932021 232.82471709 83.3125 231.5 C84.075625 231.190625 84.83875 230.88125 85.625 230.5625 C87.44748023 229.61928004 87.44748023 229.61928004 88.20703125 227.703125 C89.44436194 225.23720801 90.96797418 223.3459765 92.6875 221.1875 C99.44005605 212.03211835 104.25194718 201.65136305 109.3125 191.5 C109.65087891 190.82582031 109.98925781 190.15164063 110.33789062 189.45703125 C114.11734079 181.86400496 117.00206261 174.04767069 119.72265625 166.03125 C120.93913321 162.48150378 122.28258657 158.99334047 123.65234375 155.5 C126.64788327 147.75301128 129.25783106 139.90080682 131.8125 132 C132.19201309 130.82896729 132.19201309 130.82896729 132.57919312 129.63427734 C142.38459359 99.28663705 151.34059563 68.6297286 158.3125 37.5 C96.48222229 30.47067337 96.48222229 30.47067337 39.3125 47.5 C37.60663425 49.12652316 35.9347454 50.79006566 34.3125 52.5 C33.78398438 52.92796875 33.25546875 53.3559375 32.7109375 53.796875 C30.74319854 56.1933392 30.80500316 58.12744632 30.625 61.1875 C30.55925781 62.18136719 30.49351562 63.17523438 30.42578125 64.19921875 C30.38839844 64.95847656 30.35101562 65.71773438 30.3125 66.5 C39.69702707 62.73121386 48.35237395 58.63932075 56.64257812 52.78955078 C61.24194076 49.68655613 65.68071346 48.09010239 71.3125 48.5 C74.73086109 50.85012325 75.97185218 52.55820898 77.375 56.4375 C77.29196622 60.50615542 76.07859676 62.6697412 73.3125 65.5 C62.38882762 74.95317802 44.27825138 85.3431902 29.7265625 86.75 C27.21522873 87.0100734 25.50809504 87.24200885 23.3125 88.5 C21.85525918 91.25732822 21.11789431 93.95055932 20.3203125 96.96484375 C19.2405682 100.75231892 17.76037849 104.21155244 16.0625 107.75 C15.76239014 108.37817627 15.46228027 109.00635254 15.15307617 109.65356445 C14.21309832 111.6057882 13.26283725 113.55280211 12.3125 115.5 C12.00296387 116.14485352 11.69342773 116.78970703 11.37451172 117.45410156 C-5.73821106 153.10042707 -31.2247304 201.51351557 -70.69921875 215.84375 C-71.35535156 216.0603125 -72.01148438 216.276875 -72.6875 216.5 C-73.6775 216.83 -74.6675 217.16 -75.6875 217.5 C-94.30524554 218.7890625 -94.30524554 218.7890625 -100.1015625 214.015625 C-100.62492188 213.51546875 -101.14828125 213.0153125 -101.6875 212.5 C-102.27273438 212.06171875 -102.85796875 211.6234375 -103.4609375 211.171875 C-112.7195554 203.49005229 -116.49888613 188.81075646 -118.6875 177.5 C-118.914375 176.365625 -119.14125 175.23125 -119.375 174.0625 C-119.85897156 168.54522417 -119.76240267 163.03447477 -119.6875 157.5 C-123.13384983 160.65139196 -125.51647066 164.17478693 -127.9375 168.125 C-134.21674743 178.10858895 -141.67623896 186.8589689 -149.6875 195.5 C-150.23792969 196.11617187 -150.78835938 196.73234375 -151.35546875 197.3671875 C-160.51031844 207.17756964 -174.84963433 217.1628956 -188.515625 217.87109375 C-207.09962913 218.29074356 -207.09962913 218.29074356 -214.6875 212.5 C-215.32429687 212.06558594 -215.96109375 211.63117188 -216.6171875 211.18359375 C-227.81829126 202.74671087 -231.35015607 188.12741063 -233.27734375 174.95922852 C-236.6793458 146.26698622 -231.7779723 115.43111135 -220.57470703 88.86083984 C-219.51160946 86.45229936 -219.51160946 86.45229936 -219.6875 83.5 C-225.67647631 87.15574855 -231.64960701 90.83214309 -237.5703125 94.59765625 C-238.40651123 95.12907227 -239.24270996 95.66048828 -240.10424805 96.20800781 C-241.75834013 97.26085945 -243.41090201 98.31611981 -245.06176758 99.37402344 C-256.36054219 106.56318847 -256.36054219 106.56318847 -260.3125 106.375 C-262.6875 105.5 -262.6875 105.5 -266.6875 102.5 C-272.6275 108.44 -278.5675 114.38 -284.6875 120.5 C-281.92375 119.675 -279.16 118.85 -276.3125 118 C-262.71944726 114.14122451 -262.71944726 114.14122451 -256.6875 115.5 C-253.45735301 117.5483859 -252.87670783 118.85128743 -251.8125 122.5 C-251.67957998 125.69008039 -251.72586275 127.00337078 -253.6875 129.5 C-256.69806846 131.19344476 -259.76309188 131.71104624 -263.12109375 132.3125 C-269.17053262 133.5078981 -274.91868538 135.39316345 -280.75 137.375 C-281.77416016 137.71402344 -282.79832031 138.05304688 -283.85351562 138.40234375 C-289.960472 140.45490545 -295.85889793 142.75334591 -301.6875 145.5 C-301.8052595 149.60391862 -301.87526774 153.70739356 -301.9375 157.8125 C-301.98777344 159.53436523 -301.98777344 159.53436523 -302.0390625 161.29101562 C-302.12546506 168.91604167 -301.40210528 175.70527657 -297.6875 182.5 C-293.64586678 185.19442215 -290.34941659 185.26098933 -285.6875 184.5 C-275.56401324 180.92140186 -268.07544063 174.3177445 -260.9375 166.5 C-258.09781905 163.97583915 -256.47566851 163.5 -252.6875 163.5 C-249.50985869 164.66106125 -247.40873353 165.62197657 -245.25 168.25 C-244.36150595 171.8039762 -244.68179801 173.95046357 -245.6875 177.5 C-247.74675534 180.44676539 -250.17046007 182.94228064 -252.6875 185.5 C-253.19152344 186.07621094 -253.69554687 186.65242187 -254.21484375 187.24609375 C-262.91194175 196.82839257 -276.30151785 205.03175989 -289.3125 205.87109375 C-290.99957391 205.92840169 -292.68719731 205.97128318 -294.375 206 C-295.17123779 206.01877197 -295.96747559 206.03754395 -296.7878418 206.05688477 C-303.89973188 205.97926825 -309.0177593 203.74500922 -314.4375 199.1875 C-318.22957608 194.65807579 -320.67830831 190.39367945 -321.6875 184.5 C-322.38875 185.08007812 -323.09 185.66015625 -323.8125 186.2578125 C-326.76034094 188.68497501 -329.72356016 191.09253888 -332.6875 193.5 C-333.72197266 194.37011719 -333.72197266 194.37011719 -334.77734375 195.2578125 C-348.36853041 206.23420426 -365.8452437 208.08380561 -382.6875 206.5 C-391.71080455 204.52675081 -398.57394263 199.30772624 -404.6875 192.5 C-405.9609375 190.22265625 -405.9609375 190.22265625 -406.6875 188.5 C-407.491875 189.11875 -407.491875 189.11875 -408.3125 189.75 C-426.08781324 202.84759923 -443.58916944 208.39664562 -465.6875 206.5 C-469.76677859 205.70568503 -473.07170174 204.52760909 -476.6875 202.5 C-477.491875 202.05269531 -478.29625 201.60539063 -479.125 201.14453125 C-487.23929882 196.16651569 -492.90905831 189.6902302 -495.6875 180.5 C-496.55415697 175.85156715 -497.17936594 171.20024001 -497.6875 166.5 C-498.3475 166.665 -499.0075 166.83 -499.6875 167 C-503.41849794 167.62183299 -506.90623378 167.56408926 -510.6875 167.5 C-510.41035156 168.65757812 -510.13320313 169.81515625 -509.84765625 171.0078125 C-509.48166563 172.54684999 -509.11578609 174.08591389 -508.75 175.625 C-508.56759766 176.38554687 -508.38519531 177.14609375 -508.19726562 177.9296875 C-504.89564108 191.85654011 -504.78119905 205.48367257 -507 219.625 C-507.11762695 220.38127686 -507.23525391 221.13755371 -507.35644531 221.91674805 C-509.91609899 236.77223167 -516.53217259 252.95807839 -529.125 261.9375 C-535.04562346 265.5500838 -540.7934727 267.23024393 -547.7421875 266.03125 C-553.46330474 264.46885654 -557.37933457 261.50964011 -560.625 256.56640625 C-562.59439455 252.73622348 -563.65526352 248.66381877 -564.6875 244.5 C-564.86023438 243.91863281 -565.03296875 243.33726562 -565.2109375 242.73828125 C-570.66605535 217.11711297 -564.2441424 183.82225603 -555.6875 159.5 C-557.33298828 160.22316406 -557.33298828 160.22316406 -559.01171875 160.9609375 C-560.46612729 161.5990006 -561.92055541 162.23701908 -563.375 162.875 C-564.09623047 163.19210938 -564.81746094 163.50921875 -565.56054688 163.8359375 C-566.26630859 164.1453125 -566.97207031 164.4546875 -567.69921875 164.7734375 C-568.38733643 165.07991211 -569.0754541 165.38638672 -569.78442383 165.70214844 C-571.6875 166.5 -571.6875 166.5 -574.5546875 167.3515625 C-577.72356202 169.05787955 -578.04187753 171.13557563 -579.125 174.5 C-583.31288614 186.29631282 -589.34423844 196.43846553 -600.75 202.375 C-610.5624376 207.04447946 -621.87369135 208.3048493 -632.51171875 205.84765625 C-642.23851449 201.89243215 -649.63157403 193.61511821 -653.72265625 184.08984375 C-655.83871135 177.87946809 -656.02184577 172.01355094 -655.6875 165.5 C-656.90953125 165.98533203 -656.90953125 165.98533203 -658.15625 166.48046875 C-662.29231542 167.67462038 -665.9121788 167.83128436 -670.1875 167.8125 C-670.92097656 167.82861328 -671.65445313 167.84472656 -672.41015625 167.86132812 C-677.93529718 167.86627011 -682.14841939 166.87021064 -686.33203125 162.96484375 C-690.81598956 157.10120596 -690.97519348 153.73659743 -690.6875 146.5 C-690.41045572 144.49142897 -690.10520428 142.48409532 -689.6875 140.5 C-694.07190275 147.4636878 -697.75357126 154.56070619 -701.125 162.0625 C-701.59873047 163.10664063 -702.07246094 164.15078125 -702.56054688 165.2265625 C-708.89448066 179.27151003 -708.89448066 179.27151003 -714.44677734 193.63891602 C-716.31544402 198.8873022 -717.84614053 201.54139144 -722.6875 204.5 C-727.19192217 205.79966303 -730.60564382 205.86061873 -735.0625 204.375 C-739.09736382 201.49295442 -740.73817712 198.27370754 -741.6875 193.5 C-742.96412036 170.23761697 -743.64271786 132.18099028 -729 112.375 C-726.03631311 109.31377405 -723.04843174 108.17048578 -718.875 107.5078125 C-715.52646823 107.49585346 -713.38945429 108.608632 -710.6875 110.5 C-707.43316223 117.00867553 -710.45381998 125.31723958 -712.11499023 131.95898438 C-713.72388441 138.43176095 -714.81306814 144.88423266 -715.6875 151.5 C-715.25836304 150.73091309 -715.25836304 150.73091309 -714.82055664 149.94628906 C-709.02467678 139.61113256 -703.19318823 129.70374317 -695.6875 120.5 C-695.07132813 119.72011719 -694.45515625 118.94023437 -693.8203125 118.13671875 C-689.58966492 112.99413158 -685.77028063 109.06476504 -678.9765625 108.125 C-674.39395894 107.92842719 -671.54975954 107.98264428 -667.5625 110.375 C-664.1519032 114.24034304 -664.36441578 117.35341407 -664.390625 122.359375 C-664.80423503 126.73493376 -666.2146689 130.51435116 -667.73046875 134.6171875 C-669.05295212 138.60083129 -669.4090625 142.32343748 -669.6875 146.5 C-662.23724323 146.32563229 -655.70982535 145.12154679 -649.6875 140.5 C-647.71723153 137.92898869 -646.12975166 135.27521624 -644.5078125 132.47265625 C-637.55723532 121.12203558 -626.6448406 112.04744672 -613.6875 108.5 C-602.92999676 106.95251694 -593.80039945 106.90242574 -584.6875 113.5 C-578.71968913 118.33468222 -574.40149608 123.76224062 -573.43066406 131.56396484 C-572.98770293 136.5372103 -572.80209092 141.50956542 -572.6875 146.5 C-563.17973565 143.80613343 -554.69316672 139.53659681 -547.6875 132.5 C-547.0275 132.5 -546.3675 132.5 -545.6875 132.5 C-545.56890625 131.7884375 -545.4503125 131.076875 -545.328125 130.34375 C-543.37022928 121.65260314 -539.39713546 114.83120557 -532.125 109.6875 C-527.11690282 107.95743007 -521.91987293 107.54110915 -516.6875 108.5 C-514.55948996 110.49863417 -513.77957477 111.71880316 -513.4375 114.62109375 C-514.74211532 126.70917005 -520.51911679 137.64817135 -525.6875 148.5 C-519.88652046 147.67712463 -514.0926679 146.8201645 -508.3046875 145.91015625 C-506.67022241 145.65400874 -505.0349151 145.40311453 -503.3984375 145.16015625 C-501.4485957 144.86439373 -499.50512356 144.52745912 -497.5625 144.1875 C-495.91894531 143.91486328 -495.91894531 143.91486328 -494.2421875 143.63671875 C-491.41020912 142.72448875 -491.41020912 142.72448875 -490.5078125 139.72265625 C-490.23710937 138.65917969 -489.96640625 137.59570312 -489.6875 136.5 C-482.78718392 123.24825663 -472.80874765 113.54001004 -458.6875 108.5 C-449.219569 106.51808953 -438.73308459 106.86496781 -430.3515625 112.16796875 C-425.53191973 116.02594571 -421.5258347 120.54937155 -419.6875 126.5 C-418.81086042 134.94020435 -419.17049151 142.21632381 -423.6875 149.5 C-424.1 150.18578125 -424.5125 150.8715625 -424.9375 151.578125 C-432.73479187 163.18545721 -446.26950258 168.20930552 -459.0625 172.3125 C-459.74070801 172.53180176 -460.41891602 172.75110352 -461.11767578 172.97705078 C-464.73659368 174.08938997 -467.89867491 174.7560017 -471.6875 174.5 C-471.0275 176.48 -470.3675 178.46 -469.6875 180.5 C-469.0275 180.5 -468.3675 180.5 -467.6875 180.5 C-467.6875 181.16 -467.6875 181.82 -467.6875 182.5 C-453.80583255 187.01087066 -441.3897763 186.17150454 -428.01171875 180.33203125 C-425.81525521 179.15982532 -423.7691236 177.86340259 -421.6875 176.5 C-420.55634766 175.943125 -420.55634766 175.943125 -419.40234375 175.375 C-416.87291039 173.94745384 -415.39058507 172.8685579 -413.6875 170.5 C-412.99802324 166.75398931 -412.86097864 163.09943821 -412.80078125 159.3046875 C-412.42425941 146.65874724 -405.72510927 133.14513113 -397.6875 123.5 C-397.0275 123.5 -396.3675 123.5 -395.6875 123.5 C-395.31625 122.61828125 -395.31625 122.61828125 -394.9375 121.71875 C-391.45471024 115.53679818 -383.98473987 111.56272885 -377.48828125 109.21875 C-367.97824561 106.77823876 -357.10992431 106.13152469 -348.21484375 110.796875 C-342.62573511 114.32301184 -338.2383966 118.28352929 -335.6875 124.5 C-334.61647438 133.45151943 -335.22407555 141.15219998 -340.6875 148.5 C-347.55453322 156.33902137 -347.55453322 156.33902137 -353 156.75 C-356.14536925 155.28703756 -357.74906478 154.40765283 -359.6875 151.5 C-360.26740854 147.96980679 -360.36650251 144.78488168 -358.671875 141.578125 C-357.4474497 138.99322714 -357.48764942 137.09432187 -357.5625 134.25 C-357.58054687 133.35796875 -357.59859375 132.4659375 -357.6171875 131.546875 C-357.64039063 130.87140625 -357.66359375 130.1959375 -357.6875 129.5 C-363.88521144 128.33157899 -368.40224794 128.0082503 -373.9453125 131.26953125 C-380.79641641 136.1083154 -386.01246454 143.10709241 -388.17578125 151.22265625 C-388.87412968 155.69528474 -389.09296539 160.10261297 -389.1875 164.625 C-389.2335437 165.89573364 -389.2335437 165.89573364 -389.28051758 167.19213867 C-389.28234945 173.45285423 -387.72585845 177.68164261 -383.6875 182.5 C-377.36145685 187.53501393 -371.5706658 188.24169571 -363.6875 187.5 C-354.26216331 185.56360657 -344.85517601 181.77583667 -338.0078125 174.78515625 C-336.6875 173.5 -336.6875 173.5 -334.6875 173.5 C-334.6875 172.84 -334.6875 172.18 -334.6875 171.5 C-333.4062484 170.42012963 -332.08682754 169.38525631 -330.75 168.375 C-327.6217892 165.75436485 -326.14668106 164.16597517 -325.6875 160.0625 C-325.6875 158.886875 -325.6875 157.71125 -325.6875 156.5 C-327.54375 156.87125 -327.54375 156.87125 -329.4375 157.25 C-332.56329535 157.62620192 -333.35444066 157.7049596 -336.125 156 C-338.19343537 152.6905034 -338.6875 150.40377639 -338.6875 146.5 C-336.53657012 142.19814023 -333.96667456 141.22396422 -329.68359375 139.64453125 C-326.44876998 138.04804111 -325.00733364 137.22285514 -323.53295898 133.890625 C-322.84332366 130.53240083 -322.41708767 127.22243987 -322.0625 123.8125 C-321.70465452 121.27543981 -321.33322215 118.7402642 -320.94921875 116.20703125 C-320.65797119 114.27851318 -320.65797119 114.27851318 -320.36083984 112.31103516 C-315.89713311 87.04690819 -305.16704751 56.8003337 -287.6875 37.5 C-286.6046875 36.29537109 -286.6046875 36.29537109 -285.5 35.06640625 C-280.72110245 30.01371769 -275.96773444 26.47414908 -269.6875 23.5 C-269.0275 23.17 -268.3675 22.84 -267.6875 22.5 C-265.08774068 22.32221377 -262.53925193 22.22246978 -259.9375 22.1875 C-259.23367188 22.15849609 -258.52984375 22.12949219 -257.8046875 22.09960938 C-251.51691936 22.02364192 -248.12112562 24.33677723 -243.4375 28.5 C-238.27456414 34.40049813 -239.00536791 41.74291218 -239.43164062 49.17333984 C-240.13263596 55.54784899 -242.44694154 61.53184576 -244.6875 67.5 C-245.0175 68.41652344 -245.3475 69.33304687 -245.6875 70.27734375 C-246.32753072 72.02819702 -247.00139545 73.76668323 -247.6875 75.5 C-246.54087891 74.79037109 -246.54087891 74.79037109 -245.37109375 74.06640625 C-239.05950604 70.17008315 -232.72774926 66.31281462 -226.36035156 62.50805664 C-221.75523336 59.7513656 -217.16445859 56.97140272 -212.578125 54.18359375 C-211.63326988 53.60932396 -211.63326988 53.60932396 -210.66932678 53.02345276 C-207.4649456 51.07549442 -204.26129698 49.1263403 -201.05834961 47.17602539 C-199.86573437 46.45066434 -198.6731079 45.72532174 -197.48046875 45 C-195.87981567 44.02546875 -195.87981567 44.02546875 -194.24682617 43.03125 C-189.99914711 40.48985507 -186.62502422 39.83798558 -181.6875 40.5 C-177.35025786 42.70953845 -174.57102693 44.95737622 -172.6875 49.5 C-173.09867418 53.46815719 -174.39864179 55.84644228 -176.6875 59.0625 C-187.26054206 75.31046055 -192.96158669 94.13916961 -198.6875 112.5 C-198.92871582 113.25120117 -199.16993164 114.00240234 -199.41845703 114.77636719 C-205.77915287 134.72971393 -210.95682809 165.18978699 -201.8125 185.0625 C-199.42199784 189.28309356 -197.32379089 190.9545697 -192.6875 192.5 C-182.86351847 192.5 -174.83934498 186.72354334 -167.6875 180.5 C-166.61435547 179.64148438 -166.61435547 179.64148438 -165.51953125 178.765625 C-151.73295813 167.34595027 -140.71848089 150.29288251 -132.6875 134.5 C-132.39552734 133.92975098 -132.10355469 133.35950195 -131.80273438 132.77197266 C-129.75659592 128.76759921 -127.75537393 124.74277209 -125.77587891 120.70507812 C-124.66115416 118.44662279 -123.52413366 116.20022466 -122.38671875 113.953125 C-118.36654657 105.88324537 -115.04627009 98.00736437 -112.625 89.3125 C-105.6430942 64.41101489 -105.6430942 64.41101489 -95.62890625 58.35546875 C-92.47569942 56.96602751 -90.14482696 56.37195085 -86.6875 56.5 C-82.73263537 58.5534874 -80.03034428 60.72317345 -77.6875 64.5 C-75.95073698 73.84957427 -79.22490943 81.98849967 -82.6875 90.5 C-83.83482891 93.38008305 -84.97530926 96.26274959 -86.11157227 99.1472168 C-86.89206344 101.1231177 -87.67991473 103.09613274 -88.47631836 105.06567383 C-92.49427179 115.13888969 -95.04129022 124.73957023 -95.875 135.5625 C-95.95685547 136.47837891 -96.03871094 137.39425781 -96.12304688 138.33789062 C-97.40386032 153.54620488 -98.49752804 173.81968945 -90.6875 187.5 C-88.43379361 190.05449987 -87.182233 191.33134102 -83.9375 192.4375 C-74.06181005 192.62741711 -65.75621065 185.63858506 -58.98022461 179.14624023 C-33.54379307 154.03749219 -16.30525937 120.60306283 -3.6875 87.5 C-4.76128906 86.99210937 -5.83507812 86.48421875 -6.94140625 85.9609375 C-22.4870942 78.49185565 -31.11640131 70.69454609 -37.7421875 54.26171875 C-41.58727336 43.02834808 -40.87487178 30.15017923 -35.6875 19.5 C-30.33220542 10.71460534 -22.87499473 4.45833158 -13.0859375 1.1953125 C-8.70126238 0.29821805 -4.46762139 0.06475439 0 0 Z M-8.6875 22.5 C-14.93518173 29.28319731 -15.2902592 35.34842705 -15.0625 44.21875 C-14.54700068 52.64348181 -10.37425735 58.41757262 -4.43359375 64.125 C-1.47752648 66.45282031 0.5134466 67.5 4.3125 67.5 C6.93516818 58.63288378 7.63733607 50.20229357 7.6875 41 C7.70103516 39.96166016 7.71457031 38.92332031 7.72851562 37.85351562 C7.69638899 32.35272174 7.51041661 28.19741818 4.3125 23.5 C-0.37478068 19.98453949 -3.49941923 19.84269034 -8.6875 22.5 Z M-272.1875 51.9375 C-273.25484375 52.89462891 -273.25484375 52.89462891 -274.34375 53.87109375 C-279.94300021 60.15158607 -283.84979899 67.28475854 -287.25 74.9375 C-287.63349609 75.79641846 -288.01699219 76.65533691 -288.41210938 77.5402832 C-293.3137882 88.84794203 -296.53181484 100.23288355 -297.6875 112.5 C-292.43238169 108.2101075 -288.0471644 103.68257294 -283.6875 98.5 C-282.90117188 97.613125 -282.11484375 96.72625 -281.3046875 95.8125 C-270.10864703 82.93876539 -260.00777669 67.17280619 -260.6875 49.5 C-261.78236007 48.19398892 -261.78236007 48.19398892 -264.46875 48.22265625 C-268.27352379 48.55049477 -269.42541808 49.37056517 -272.1875 51.9375 Z M-466.6875 139.5 C-470.98164133 145.32776323 -474.45673914 153.19222821 -473.6875 160.5 C-461.88729955 157.97759843 -448.14833195 151.90987185 -440.71875 142.12890625 C-438.58566562 138.75960252 -438.28689691 136.50603086 -438.6875 132.5 C-439.99611457 129.94014926 -439.99611457 129.94014926 -442.6875 128.5 C-453.21677992 126.69091523 -460.0691671 131.9190005 -466.6875 139.5 Z M-621.375 137.5859375 C-628.55655719 147.8196565 -633.10363781 159.8432683 -631.6875 172.5 C-630.70657575 177.25135186 -629.63838711 180.57230526 -626.125 184 C-621.93578419 186.57797896 -618.57798891 187.22451687 -613.6875 186.5 C-606.46404961 183.81347955 -602.43165773 177.96152428 -598.6875 171.5 C-597.05872688 167.67592397 -596.6875 165.68337741 -596.6875 161.5 C-597.780625 160.984375 -598.87375 160.46875 -600 159.9375 C-602.98377833 158.20909182 -603.80400315 157.31641927 -605.75 154.25 C-606.89943364 149.65226546 -606.60785598 146.79753673 -604.6875 142.5 C-603.82906921 141.22402432 -602.9327187 139.97272368 -602 138.75 C-599.39191079 135.87328612 -599.39191079 135.87328612 -599.98046875 133.421875 C-600.66353783 131.45550795 -600.66353783 131.45550795 -601.6875 129.5 C-610.69206069 128.50359369 -615.66975416 130.53361972 -621.375 137.5859375 Z M-532.6875 165.5 C-543.40047903 203.51954847 -543.40047903 203.51954847 -540.6875 241.5 C-538.35678121 241.91870553 -538.35678121 241.91870553 -535.6875 241.5 C-532.35554084 238.02094859 -530.84624194 234.77571232 -529.5 230.1875 C-529.17644531 229.11886719 -528.85289062 228.05023438 -528.51953125 226.94921875 C-524.69667454 211.10141369 -525.64777747 193.01067495 -528 177 C-528.11762695 176.17661133 -528.23525391 175.35322266 -528.35644531 174.50488281 C-529.02758149 170.48664804 -529.63119343 168.189094 -532.6875 165.5 Z " fill="#FFFFFF" transform="translate(938.6875,87.5)"/>
<path d="M0 0 C10.64481746 10.37913982 18.40070623 24.13621079 18.77954102 39.20288086 C18.81968755 57.24613185 14.30530313 70.65042153 1.77734375 84.03515625 C-16.27839417 101.32760496 -45.41026626 113.4639559 -70.65234375 113.2890625 C-70.76304199 114.34593262 -70.87374023 115.40280273 -70.98779297 116.49169922 C-71.40845264 120.50640696 -71.8298598 124.52103597 -72.25146484 128.53564453 C-72.43199945 130.25567605 -72.61234549 131.97572737 -72.79248047 133.69580078 C-73.31959583 138.72842732 -73.85091641 143.76058224 -74.38723755 148.79223633 C-74.5635099 150.45240659 -74.7383832 152.11272601 -74.91183472 153.77319336 C-76.73560388 171.21699619 -76.73560388 171.21699619 -78.46484375 179.0390625 C-78.63516113 179.82071777 -78.80547852 180.60237305 -78.98095703 181.40771484 C-81.45638766 192.30985893 -84.75618474 202.33517862 -91.65234375 211.2890625 C-92.39484375 212.3409375 -93.13734375 213.3928125 -93.90234375 214.4765625 C-101.4604227 222.20641597 -110.02225225 225.26756783 -120.58984375 225.6015625 C-130.50052544 225.35286283 -136.20758902 222.63190078 -143.37109375 215.72265625 C-165.81405643 191.78093408 -166.2100667 152.0880051 -165.65234375 121.2890625 C-164.03563376 81.63195231 -157.54289289 39.69065786 -129.65234375 9.2890625 C-129.21051758 8.79954102 -128.76869141 8.31001953 -128.31347656 7.80566406 C-96.32636619 -27.29779666 -36.69452642 -30.90693445 0 0 Z M-106.10546875 19.7734375 C-106.87117188 20.52367187 -106.87117188 20.52367187 -107.65234375 21.2890625 C-107.65234375 21.9490625 -107.65234375 22.6090625 -107.65234375 23.2890625 C-108.31234375 23.2890625 -108.97234375 23.2890625 -109.65234375 23.2890625 C-124.9919998 41.93943569 -132.44207136 64.7865813 -136.65234375 88.2890625 C-136.801875 89.08812012 -136.95140625 89.88717773 -137.10546875 90.71044922 C-141.66737809 116.00250047 -141.43149596 143.88476156 -137.65234375 169.2890625 C-137.55050781 169.99095703 -137.44867188 170.69285156 -137.34375 171.41601562 C-135.76636432 181.76639203 -133.15162065 192.5398097 -125.65234375 200.2890625 C-121.41153178 203.11627048 -117.63120578 203.06178189 -112.65234375 202.2890625 C-106.53651516 197.86484607 -104.44537177 191.47723394 -103.08984375 184.2890625 C-102.86167969 183.1134375 -102.63351563 181.9378125 -102.3984375 180.7265625 C-100.26820275 168.42816383 -99.04718364 156.15933458 -98.08984375 143.7265625 C-97.90167418 141.30403024 -97.71216019 138.88163223 -97.51905823 136.45948792 C-97.40029861 134.96829816 -97.28435279 133.4768806 -97.17173767 131.98521423 C-96.88333081 128.34758739 -96.38537777 124.85954742 -95.65234375 121.2890625 C-95.61409752 118.95604264 -95.60660091 116.62194742 -95.65234375 114.2890625 C-97.20695312 113.58330078 -97.20695312 113.58330078 -98.79296875 112.86328125 C-100.16287538 112.23462547 -101.5326607 111.60570527 -102.90234375 110.9765625 C-103.58425781 110.66783203 -104.26617187 110.35910156 -104.96875 110.04101562 C-108.52521613 108.40089775 -111.54202981 106.69585305 -114.65234375 104.2890625 C-115.31234375 104.2890625 -115.97234375 104.2890625 -116.65234375 104.2890625 C-119.26515863 98.41022901 -118.83562577 92.58174522 -118.65234375 86.2890625 C-113.47383035 84.56289137 -108.20857386 87.09055323 -103.39453125 89.34765625 C-102.06443135 90.03799327 -100.73737451 90.73423885 -99.4140625 91.4375 C-97.21147008 92.50216773 -95.07308559 92.98646977 -92.65234375 93.2890625 C-91.19320529 89.85481498 -90.15840419 86.53614344 -89.35546875 82.89453125 C-81.77739946 49.42232737 -81.77739946 49.42232737 -73.65234375 42.2890625 C-69.15365272 39.4529312 -65.93952045 38.82527507 -60.65234375 39.2890625 C-58.25713872 39.83640428 -55.99280335 40.5248308 -53.65234375 41.2890625 C-53.38094337 46.58620876 -54.11202521 50.24176909 -56.171875 55.11328125 C-56.43111252 55.74079788 -56.69035004 56.36831451 -56.95744324 57.0148468 C-57.78170927 59.00713591 -58.6216694 60.99220989 -59.46484375 62.9765625 C-66.17121999 78.114225 -66.17121999 78.114225 -68.65234375 94.2890625 C-52.34721157 92.47738115 -36.94423361 88.29109922 -23.65234375 78.2890625 C-23.65234375 77.6290625 -23.65234375 76.9690625 -23.65234375 76.2890625 C-23.06453125 76.04027344 -22.47671875 75.79148437 -21.87109375 75.53515625 C-13.56613324 70.87092667 -10.49635334 60.81685647 -8.06640625 52.21484375 C-6.06896252 42.92484601 -8.35708531 32.44626061 -13.33984375 24.4765625 C-20.95832734 14.09285153 -30.50797603 9.5316913 -42.65234375 6.2890625 C-43.25691406 6.10988281 -43.86148438 5.93070313 -44.484375 5.74609375 C-66.42619137 1.12052165 -88.53644087 5.94250066 -106.10546875 19.7734375 Z " fill="#FFFFFF" transform="translate(204.65234375,103.7109375)"/>
<path d="M0 0 C2.64123818 2.10662612 3.92296992 3.69859725 4.99609375 6.91796875 C5.77258535 17.57215581 5.77258535 17.57215581 2.99609375 21.91796875 C-1.77786096 26.82419929 -5.4137531 29.02084293 -12.31640625 29.16796875 C-16.8019277 29.10157123 -20.05705962 28.16225409 -24.00390625 25.91796875 C-27.45629791 22.28387227 -28.87385328 19.64117057 -29.25390625 14.60546875 C-28.87483888 9.01422499 -27.19353805 6.10760055 -23.25390625 2.16796875 C-16.58649714 -2.44792986 -7.44773068 -4.02148421 0 0 Z " fill="#FFFFFF" transform="translate(438.00390625,149.08203125)"/>
</svg>
