<?xml version="1.0" standalone="no"?>
<!DOCTYPE svg PUBLIC "-//W3C//DTD SVG 20010904//EN"
 "http://www.w3.org/TR/2001/REC-SVG-20010904/DTD/svg10.dtd">
<svg version="1.0" xmlns="http://www.w3.org/2000/svg"
 width="1200.000000pt" height="400.000000pt" viewBox="0 0 1200.000000 400.000000"
 preserveAspectRatio="xMidYMid meet">

<g transform="translate(0.000000,400.000000) scale(0.100000,-0.100000)"
fill="#000000" stroke="none">
<path d="M1285 3149 c-135 -15 -269 -66 -375 -144 -102 -75 -238 -237 -307
-365 -153 -285 -224 -705 -194 -1145 28 -414 132 -667 308 -751 50 -23 65 -25
142 -22 106 4 164 30 234 102 114 119 152 258 207 756 16 150 32 250 40 255 3
2 38 9 76 15 326 51 576 180 704 362 70 100 91 162 97 288 9 170 -34 292 -141
407 -106 114 -240 186 -414 223 -102 21 -278 30 -377 19z m375 -254 c131 -41
230 -117 277 -214 26 -51 28 -66 28 -171 0 -107 -2 -119 -30 -175 -58 -118
-207 -232 -365 -280 -81 -24 -197 -43 -211 -34 -19 12 14 130 87 307 78 190
80 209 21 231 -69 27 -156 -2 -199 -65 -31 -45 -67 -157 -103 -316 -14 -62
-30 -123 -35 -135 -11 -26 -8 -27 -136 28 -50 21 -99 39 -108 39 -24 0 -37
-45 -30 -101 10 -72 43 -101 187 -163 l59 -26 -6 -37 c-3 -21 -12 -110 -21
-198 -52 -556 -82 -655 -202 -655 -96 0 -160 96 -198 298 -26 137 -40 446 -26
615 6 84 16 177 22 207 68 353 156 557 303 700 90 88 189 139 316 164 58 11
316 -2 370 -19z"/>
<path d="M9312 3110 c-74 -11 -172 -62 -217 -111 -118 -131 -128 -357 -23
-521 60 -96 138 -160 236 -194 29 -10 52 -25 52 -32 0 -18 -60 -161 -117 -280
-124 -257 -266 -467 -428 -632 -91 -92 -169 -141 -234 -148 -42 -4 -52 -1 -83
26 -67 59 -93 197 -85 452 6 204 22 277 99 465 69 167 88 229 88 290 0 84 -52
133 -127 119 -70 -13 -135 -108 -187 -274 -48 -151 -78 -222 -166 -395 -138
-273 -273 -458 -420 -577 -126 -102 -222 -132 -291 -91 -73 43 -109 219 -89
435 30 318 171 735 322 950 30 42 -41 118 -111 118 -44 0 -25 10 -368 -198
-156 -95 -283 -170 -283 -168 0 2 15 36 34 77 65 142 88 307 53 375 -51 99
-191 129 -311 67 -44 -23 -142 -119 -192 -189 -114 -159 -222 -446 -279 -744
-14 -74 -28 -145 -31 -158 -3 -16 -20 -30 -55 -46 -27 -13 -59 -32 -69 -41
-27 -24 -26 -75 1 -104 19 -20 28 -22 65 -16 l44 6 0 -44 c0 -41 -4 -48 -57
-98 -80 -75 -150 -124 -230 -161 -58 -26 -80 -31 -148 -32 -91 0 -124 13 -173
68 -37 43 -52 91 -52 173 0 162 73 304 184 357 52 24 118 21 144 -7 27 -29 28
-62 2 -128 -11 -28 -18 -60 -15 -70 8 -24 53 -59 76 -59 30 0 96 67 125 126
36 73 32 170 -9 232 -75 115 -265 144 -425 66 -77 -38 -171 -136 -220 -232
-52 -100 -72 -170 -75 -267 -3 -77 -4 -79 -42 -111 -45 -37 -145 -89 -213
-109 -74 -23 -216 -20 -268 6 -36 17 -84 70 -84 92 0 4 19 11 43 17 248 64
389 146 448 261 31 60 38 173 15 233 -19 50 -80 110 -133 132 -57 24 -150 28
-223 10 -78 -20 -142 -60 -207 -129 -49 -52 -123 -164 -123 -186 0 -20 -91
-45 -256 -71 -38 -6 -77 -13 -86 -16 -27 -8 -23 13 28 127 73 165 90 239 62
267 -17 17 -124 15 -163 -4 -40 -19 -75 -68 -110 -154 -21 -54 -35 -72 -82
-108 -62 -47 -164 -99 -203 -104 -25 -3 -25 -3 -25 82 -1 100 -24 162 -83 223
-49 51 -100 76 -170 83 -169 18 -337 -79 -456 -264 -38 -58 -55 -75 -94 -92
-82 -37 -153 -39 -166 -4 -3 8 5 48 18 87 45 135 49 215 11 247 -25 21 -87 30
-128 19 -76 -20 -208 -184 -321 -399 -27 -51 -51 -89 -53 -83 -3 7 16 103 42
215 50 224 50 245 -6 268 -62 26 -130 -12 -164 -93 -50 -121 -95 -398 -96
-603 -1 -127 1 -148 20 -187 31 -64 96 -86 160 -53 38 20 52 43 101 172 80
205 248 536 257 507 2 -6 -3 -38 -11 -71 -29 -110 -14 -177 49 -218 51 -34
163 -37 261 -9 20 6 21 2 27 -74 15 -224 183 -364 396 -330 173 27 296 142
352 328 14 48 18 52 84 76 28 10 76 31 108 47 31 15 57 24 57 19 0 -5 -11 -51
-25 -103 -54 -204 -68 -318 -69 -548 -1 -205 0 -218 23 -275 44 -111 125 -159
227 -136 136 31 241 165 294 376 33 130 34 380 2 509 -13 49 -21 90 -20 91 2
2 37 6 78 9 l75 7 3 -62 c5 -91 36 -164 96 -224 78 -78 197 -125 314 -125 125
1 314 69 426 154 l47 37 51 -56 c61 -67 112 -98 194 -119 76 -20 128 -20 219
-2 131 25 230 77 340 178 l53 48 17 -51 c20 -59 73 -122 124 -149 136 -68 342
-10 509 145 120 112 139 161 81 209 -49 42 -69 35 -165 -54 -181 -168 -323
-185 -363 -44 -15 50 -26 240 -17 287 8 41 5 39 176 103 52 20 144 49 204 64
60 15 112 34 117 41 14 23 10 63 -10 89 -17 21 -27 24 -68 22 -26 -1 -93 -15
-148 -32 -54 -16 -101 -27 -104 -24 -2 2 37 46 88 98 52 52 97 100 102 107 6
11 12 9 28 -8 47 -50 52 -49 300 105 90 56 168 102 174 102 5 0 6 -8 2 -17 -4
-10 -25 -67 -46 -128 -144 -419 -146 -862 -6 -1072 100 -150 321 -183 514 -77
147 81 306 249 449 476 54 85 59 90 61 63 35 -439 173 -640 411 -596 220 41
393 193 640 562 140 210 248 410 331 617 l47 115 72 17 c119 28 308 119 410
196 58 45 66 100 22 144 -34 34 -77 26 -165 -31 -95 -60 -209 -116 -254 -125
l-33 -7 7 49 c10 68 31 109 77 149 135 115 402 160 824 137 120 -7 261 -12
312 -12 89 0 92 -1 92 -22 0 -32 -99 -411 -160 -613 -179 -593 -312 -934 -453
-1161 -67 -109 -158 -198 -211 -208 -50 -9 -115 10 -147 45 -32 34 -64 148
-74 259 -8 95 -21 136 -48 155 -34 24 -80 19 -108 -11 -23 -25 -24 -31 -23
-162 1 -205 43 -336 138 -433 63 -64 133 -93 239 -97 145 -6 222 37 337 190
113 149 305 568 410 893 96 299 320 1089 320 1131 0 24 46 34 163 34 120 0
230 19 271 45 35 23 51 75 36 120 -19 57 -36 62 -229 70 -157 6 -178 9 -219
31 -55 29 -83 30 -141 3 -41 -18 -54 -19 -165 -10 -331 27 -552 34 -687 21
-212 -19 -362 -60 -483 -130 -38 -22 -70 -39 -71 -38 -1 2 -9 24 -19 50 -21
57 -86 132 -135 158 -45 23 -137 31 -209 20z m114 -211 c12 -11 26 -37 33 -58
14 -48 14 -207 0 -269 -29 -129 -30 -133 -53 -126 -60 19 -138 104 -162 176
-25 77 -17 183 19 237 46 69 114 86 163 40z m-2642 -274 c11 -44 -21 -161 -71
-257 -46 -90 -128 -197 -251 -328 -72 -77 -74 -73 -37 80 70 288 219 530 326
530 20 0 28 -6 33 -25z m-1804 -795 c60 -60 15 -150 -114 -225 -78 -46 -208
-97 -219 -86 -12 12 24 126 58 187 28 48 94 110 139 130 47 20 112 18 136 -6z
m-1593 -21 c12 -24 10 -32 -22 -78 -62 -94 -54 -158 26 -203 36 -20 39 -26 34
-52 -8 -42 -44 -112 -82 -155 -81 -95 -217 -87 -259 15 -21 50 -18 180 6 256
11 36 37 92 59 125 56 87 113 124 186 120 32 -2 42 -7 52 -28z m698 -341 c44
-188 56 -414 29 -556 -28 -149 -61 -212 -111 -212 -32 0 -53 50 -53 124 0 102
47 386 101 614 13 55 25 66 34 30z"/>
<path d="M4202 2507 c-74 -23 -118 -115 -91 -191 20 -58 66 -86 141 -86 106 0
169 57 170 153 1 64 -12 91 -55 117 -35 22 -110 25 -165 7z"/>
</g>
</svg>
